<svg width="245" height="95" viewBox="0 0 245 95" fill="none" xmlns="http://www.w3.org/2000/svg">
<path d="M98.45 79.014C98.142 76.886 96.42 75.766 94.334 75.766C91.254 75.766 89.602 78.132 89.602 81.03C89.602 83.942 91.114 86.238 94.222 86.238C96.742 86.238 98.296 84.726 98.548 82.234H97.218C97.092 83.886 96.084 85.118 94.334 85.118C91.94 85.118 90.932 83.214 90.932 80.932C90.932 78.846 91.94 76.886 94.32 76.886C95.706 76.886 96.84 77.6 97.12 79.014H98.45ZM104.48 83.48C104.48 84.138 103.836 85.118 102.268 85.118C101.54 85.118 100.868 84.838 100.868 84.054C100.868 83.172 101.54 82.892 102.324 82.752C103.122 82.612 104.018 82.598 104.48 82.262V83.48ZM106.412 85.048C106.258 85.104 106.146 85.118 106.048 85.118C105.67 85.118 105.67 84.866 105.67 84.306V80.582C105.67 78.888 104.256 78.594 102.954 78.594C101.344 78.594 99.9575 79.224 99.8875 81.016H101.078C101.134 79.952 101.876 79.644 102.884 79.644C103.64 79.644 104.494 79.812 104.494 80.848C104.494 81.744 103.374 81.66 102.058 81.912C100.826 82.15 99.6075 82.5 99.6075 84.138C99.6075 85.58 100.686 86.168 102.002 86.168C103.01 86.168 103.892 85.818 104.55 85.048C104.55 85.832 104.942 86.168 105.558 86.168C105.936 86.168 106.202 86.098 106.412 85.972V85.048ZM107.589 86H108.779V76.004H107.589V86ZM110.693 86H111.883V76.004H110.693V86ZM117.259 81.002C117.259 83.718 118.869 86.238 122.047 86.238C125.225 86.238 126.835 83.718 126.835 81.002C126.835 78.286 125.225 75.766 122.047 75.766C118.869 75.766 117.259 78.286 117.259 81.002ZM118.589 81.002C118.589 78.986 119.611 76.886 122.047 76.886C124.483 76.886 125.505 78.986 125.505 81.002C125.505 83.018 124.483 85.118 122.047 85.118C119.611 85.118 118.589 83.018 118.589 81.002ZM128.259 86H129.449V81.912C129.449 80.61 130.149 79.644 131.591 79.644C132.501 79.644 133.061 80.218 133.061 81.1V86H134.251V81.24C134.251 79.686 133.663 78.594 131.759 78.594C130.723 78.594 129.911 79.014 129.407 79.91H129.379V78.762H128.259V86ZM136.109 86H137.299V76.004H136.109V86ZM139.212 86H140.402V78.762H139.212V86ZM140.402 76.004H139.212V77.46H140.402V76.004ZM142.246 86H143.436V81.912C143.436 80.61 144.136 79.644 145.578 79.644C146.488 79.644 147.048 80.218 147.048 81.1V86H148.238V81.24C148.238 79.686 147.65 78.594 145.746 78.594C144.71 78.594 143.898 79.014 143.394 79.91H143.366V78.762H142.246V86ZM155.023 83.704C154.813 84.642 154.127 85.118 153.147 85.118C151.565 85.118 150.851 83.998 150.893 82.738H156.311C156.381 80.988 155.597 78.594 153.035 78.594C151.061 78.594 149.633 80.19 149.633 82.36C149.703 84.572 150.795 86.168 153.105 86.168C154.729 86.168 155.877 85.3 156.199 83.704H155.023ZM150.893 81.688C150.977 80.582 151.719 79.644 152.965 79.644C154.141 79.644 154.995 80.554 155.051 81.688H150.893Z" fill="#999999"/>
<path d="M58.8831 50.904H57.7951V54.408H54.3071V55.496H57.7951V59H58.8831V55.496H62.3711V54.408H58.8831V50.904ZM66.6208 53.672C66.8768 53.64 67.1648 53.624 67.4368 53.624C68.7808 53.624 69.8528 54.376 69.8528 55.8C69.8528 57.176 68.7168 57.992 67.3888 57.992C65.8368 57.992 65.0208 56.968 64.9728 55.496H63.6128C63.5648 57.832 65.0848 59.192 67.3888 59.192C69.5168 59.192 71.2928 58.008 71.2928 55.736C71.2928 54.376 70.6208 53.288 69.2448 52.984V52.952C70.1088 52.552 70.8128 51.688 70.8128 50.696C70.8128 48.6 69.3248 47.656 67.3568 47.656C65.0848 47.656 63.9328 49.16 63.8528 51.32H65.2128C65.2288 49.992 65.8688 48.856 67.3568 48.856C68.5088 48.856 69.3728 49.496 69.3728 50.68C69.3728 51.912 68.3648 52.536 67.2128 52.536C67.0208 52.536 66.8288 52.536 66.6208 52.52V53.672ZM74.1034 55.8C74.1034 54.488 75.1594 53.624 76.5034 53.624C77.7834 53.624 78.8394 54.552 78.8394 55.784C78.8394 57.048 77.8794 57.992 76.5194 57.992C75.1114 57.992 74.1034 57.16 74.1034 55.8ZM73.0634 50.552C73.0634 51.576 73.7034 52.52 74.6474 52.904C73.3834 53.352 72.6634 54.392 72.6634 55.736C72.6634 58.056 74.3434 59.192 76.5194 59.192C78.6154 59.192 80.2794 57.928 80.2794 55.736C80.2794 54.328 79.6234 53.336 78.2634 52.904C79.1914 52.488 79.8314 51.56 79.8314 50.552C79.8314 49.112 78.8714 47.656 76.3914 47.656C74.6474 47.656 73.0634 48.68 73.0634 50.552ZM74.5034 50.6C74.5034 49.464 75.3994 48.856 76.4874 48.856C77.5914 48.856 78.3914 49.464 78.3914 50.6C78.3914 51.752 77.5914 52.424 76.5194 52.424C75.3994 52.424 74.5034 51.848 74.5034 50.6ZM89.6712 62.168C88.1512 59.72 87.5592 57.368 87.5592 54.68C87.5592 52.088 88.1512 49.704 89.6712 47.304H88.6312C86.9992 49.48 86.1192 52.184 86.1192 54.68C86.1192 57.48 87.0952 59.768 88.6312 62.168H89.6712ZM90.1798 53.432C90.1798 55.928 90.4038 59.192 93.9558 59.192C97.5078 59.192 97.7318 55.928 97.7318 53.432C97.7318 50.92 97.5078 47.656 93.9558 47.656C90.4038 47.656 90.1798 50.92 90.1798 53.432ZM91.6198 53.416C91.6198 51.736 91.6358 48.856 93.9558 48.856C96.2758 48.856 96.2918 51.736 96.2918 53.416C96.2918 55.112 96.2758 57.992 93.9558 57.992C91.6358 57.992 91.6198 55.112 91.6198 53.416ZM102.974 52.904C104.526 52.904 105.262 54.072 105.262 55.48C105.262 56.824 104.446 57.992 102.974 57.992C101.486 57.992 100.622 56.872 100.622 55.464C100.622 54.04 101.454 52.904 102.974 52.904ZM106.382 50.552C106.222 48.712 105.054 47.656 103.182 47.656C99.9504 47.656 99.0064 50.616 99.0064 53.736C99.0064 56.12 99.5504 59.192 102.91 59.192C105.774 59.192 106.702 57.032 106.702 55.384C106.702 53.288 105.406 51.704 103.23 51.704C101.998 51.704 101.038 52.152 100.398 53.192L100.366 53.16C100.43 51.416 100.798 48.856 103.118 48.856C104.19 48.856 104.894 49.528 105.022 50.552H106.382ZM110.777 53.672C111.033 53.64 111.321 53.624 111.593 53.624C112.937 53.624 114.009 54.376 114.009 55.8C114.009 57.176 112.873 57.992 111.545 57.992C109.993 57.992 109.177 56.968 109.129 55.496H107.769C107.721 57.832 109.241 59.192 111.545 59.192C113.673 59.192 115.449 58.008 115.449 55.736C115.449 54.376 114.777 53.288 113.401 52.984V52.952C114.265 52.552 114.969 51.688 114.969 50.696C114.969 48.6 113.481 47.656 111.513 47.656C109.241 47.656 108.089 49.16 108.009 51.32H109.369C109.385 49.992 110.025 48.856 111.513 48.856C112.665 48.856 113.529 49.496 113.529 50.68C113.529 51.912 112.521 52.536 111.369 52.536C111.177 52.536 110.985 52.536 110.777 52.52V53.672ZM117.06 62.168C118.692 59.992 119.572 57.288 119.572 54.792C119.572 51.992 118.596 49.704 117.06 47.304H116.02C117.54 49.752 118.132 52.104 118.132 54.792C118.132 57.384 117.54 59.768 116.02 62.168H117.06ZM122.4 55.8C122.4 54.488 123.456 53.624 124.8 53.624C126.08 53.624 127.136 54.552 127.136 55.784C127.136 57.048 126.176 57.992 124.816 57.992C123.408 57.992 122.4 57.16 122.4 55.8ZM121.36 50.552C121.36 51.576 122 52.52 122.944 52.904C121.68 53.352 120.96 54.392 120.96 55.736C120.96 58.056 122.64 59.192 124.816 59.192C126.912 59.192 128.576 57.928 128.576 55.736C128.576 54.328 127.92 53.336 126.56 52.904C127.488 52.488 128.128 51.56 128.128 50.552C128.128 49.112 127.168 47.656 124.688 47.656C122.944 47.656 121.36 48.68 121.36 50.552ZM122.8 50.6C122.8 49.464 123.696 48.856 124.784 48.856C125.888 48.856 126.688 49.464 126.688 50.6C126.688 51.752 125.888 52.424 124.816 52.424C123.696 52.424 122.8 51.848 122.8 50.6ZM132.699 53.672C132.955 53.64 133.243 53.624 133.515 53.624C134.859 53.624 135.931 54.376 135.931 55.8C135.931 57.176 134.795 57.992 133.467 57.992C131.915 57.992 131.099 56.968 131.051 55.496H129.691C129.643 57.832 131.163 59.192 133.467 59.192C135.595 59.192 137.371 58.008 137.371 55.736C137.371 54.376 136.699 53.288 135.323 52.984V52.952C136.187 52.552 136.891 51.688 136.891 50.696C136.891 48.6 135.403 47.656 133.435 47.656C131.163 47.656 130.011 49.16 129.931 51.32H131.291C131.307 49.992 131.947 48.856 133.435 48.856C134.587 48.856 135.451 49.496 135.451 50.68C135.451 51.912 134.443 52.536 133.291 52.536C133.099 52.536 132.907 52.536 132.699 52.52V53.672ZM141.59 53.672C141.846 53.64 142.134 53.624 142.406 53.624C143.75 53.624 144.822 54.376 144.822 55.8C144.822 57.176 143.686 57.992 142.358 57.992C140.806 57.992 139.99 56.968 139.942 55.496H138.582C138.534 57.832 140.054 59.192 142.358 59.192C144.486 59.192 146.262 58.008 146.262 55.736C146.262 54.376 145.59 53.288 144.214 52.984V52.952C145.078 52.552 145.782 51.688 145.782 50.696C145.782 48.6 144.294 47.656 142.326 47.656C140.054 47.656 138.902 49.16 138.822 51.32H140.182C140.198 49.992 140.838 48.856 142.326 48.856C143.478 48.856 144.342 49.496 144.342 50.68C144.342 51.912 143.334 52.536 142.182 52.536C141.99 52.536 141.798 52.536 141.59 52.52V53.672ZM153.509 51.672C153.461 50.312 154.133 48.856 155.717 48.856C156.917 48.856 157.909 49.672 157.909 50.904C157.909 52.472 156.933 53.176 155.013 54.36C153.413 55.352 152.053 56.312 151.829 59H159.237V57.8H153.413C153.685 56.392 155.173 55.672 156.597 54.808C158.005 53.928 159.349 52.92 159.349 50.92C159.349 48.808 157.781 47.656 155.797 47.656C153.397 47.656 152.037 49.368 152.149 51.672H153.509ZM167.04 47.656H165.952L160.784 55.032V56.344H165.76V59H167.04V56.344H168.576V55.144H167.04V47.656ZM161.952 55.144L165.728 49.592H165.76V55.144H161.952ZM179.376 47.656H178.336C178.032 49.368 176.624 49.784 175.072 49.784V50.872H178.016V59H179.376V47.656ZM190.09 47.848H184.49L183.434 53.736L184.602 53.8C185.13 53.16 185.85 52.728 186.714 52.728C188.234 52.728 189.274 53.8 189.274 55.304C189.274 57.112 188.17 57.992 186.874 57.992C185.514 57.992 184.57 57.112 184.49 55.944H183.13C183.178 57.992 184.778 59.192 186.746 59.192C189.386 59.192 190.714 57.336 190.714 55.416C190.714 52.824 189.066 51.528 187.05 51.528C186.282 51.528 185.434 51.784 184.938 52.344L184.906 52.312L185.514 49.048H190.09V47.848Z" fill="white"/>
<mask id="mask0_2_173" style="mask-type:alpha" maskUnits="userSpaceOnUse" x="114" y="6" width="18" height="18">
<path fill-rule="evenodd" clip-rule="evenodd" d="M117.62 13.79C119.06 16.62 121.38 18.93 124.21 20.38L126.41 18.18C126.68 17.91 127.08 17.82 127.43 17.94C128.55 18.31 129.76 18.51 131 18.51C131.55 18.51 132 18.96 132 19.51V23C132 23.55 131.55 24 131 24C121.61 24 114 16.39 114 7C114 6.45 114.45 6 115 6H118.5C119.05 6 119.5 6.45 119.5 7C119.5 8.25 119.7 9.45 120.07 10.57C120.18 10.92 120.1 11.31 119.82 11.59L117.62 13.79Z" fill="white"/>
</mask>
<g mask="url(#mask0_2_173)">
<rect x="110" y="2" width="26" height="26" fill="white" fill-opacity="0.5"/>
</g>
</svg>
